<mxfile host="app.diagrams.net" agent="Mozilla/5.0 (Windows NT 10.0; Win64; x64) AppleWebKit/537.36 (KHTML, like Gecko) Chrome/126.0.0.0 Safari/537.36 OPR/112.0.0.0" version="24.7.7">
  <diagram id="R2lEEEUBdFMjLlhIrx00" name="Page-1">
    <mxGraphModel dx="4797" dy="12889" grid="1" gridSize="10" guides="1" tooltips="1" connect="1" arrows="1" fold="1" page="0" pageScale="1" pageWidth="850" pageHeight="1100" background="#ffffff" math="0" shadow="0" extFonts="Permanent Marker^https://fonts.googleapis.com/css?family=Permanent+Marker">
      <root>
        <mxCell id="0" />
        <mxCell id="1" parent="0" />
        <mxCell id="I9boGaK-zYPbT79MtiFF-1" value="Produto" style="rounded=0;whiteSpace=wrap;html=1;" parent="1" vertex="1">
          <mxGeometry x="-1262" y="-11000.5" width="170" height="60" as="geometry" />
        </mxCell>
        <mxCell id="I9boGaK-zYPbT79MtiFF-2" value="CATEGORIA" style="rounded=0;whiteSpace=wrap;html=1;" parent="1" vertex="1">
          <mxGeometry x="-587" y="-11000.5" width="170" height="60" as="geometry" />
        </mxCell>
        <mxCell id="I9boGaK-zYPbT79MtiFF-3" value="ESTOQUE" style="rounded=0;whiteSpace=wrap;html=1;" parent="1" vertex="1">
          <mxGeometry x="-1254.5" y="-10588" width="170" height="60" as="geometry" />
        </mxCell>
        <mxCell id="I9boGaK-zYPbT79MtiFF-4" value="MOVIMENTACAO_ESTOQUE" style="rounded=0;whiteSpace=wrap;html=1;" parent="1" vertex="1">
          <mxGeometry x="-2082" y="-11010.5" width="170" height="70" as="geometry" />
        </mxCell>
        <mxCell id="I9boGaK-zYPbT79MtiFF-5" value="" style="ellipse;whiteSpace=wrap;html=1;aspect=fixed;fillColor=#000000;" parent="1" vertex="1">
          <mxGeometry x="-1252" y="-11213" width="10" height="10" as="geometry" />
        </mxCell>
        <mxCell id="I9boGaK-zYPbT79MtiFF-18" value="" style="ellipse;whiteSpace=wrap;html=1;aspect=fixed;" parent="1" vertex="1">
          <mxGeometry x="-1190.5" y="-11122" width="10" height="10" as="geometry" />
        </mxCell>
        <mxCell id="I9boGaK-zYPbT79MtiFF-20" value="" style="ellipse;whiteSpace=wrap;html=1;aspect=fixed;" parent="1" vertex="1">
          <mxGeometry x="-1241" y="-11198" width="10" height="10" as="geometry" />
        </mxCell>
        <mxCell id="ZUPnK9qJPExyiRqyIOd3-18" style="edgeStyle=orthogonalEdgeStyle;rounded=0;orthogonalLoop=1;jettySize=auto;html=1;endSize=6;" parent="1" source="I9boGaK-zYPbT79MtiFF-21" edge="1">
          <mxGeometry relative="1" as="geometry">
            <mxPoint x="-1174" y="-11000" as="targetPoint" />
          </mxGeometry>
        </mxCell>
        <mxCell id="I9boGaK-zYPbT79MtiFF-21" value="" style="ellipse;whiteSpace=wrap;html=1;aspect=fixed;" parent="1" vertex="1">
          <mxGeometry x="-1179" y="-11102" width="10" height="10" as="geometry" />
        </mxCell>
        <mxCell id="I9boGaK-zYPbT79MtiFF-27" value="ID_PRODUTO" style="text;html=1;align=center;verticalAlign=middle;whiteSpace=wrap;rounded=0;" parent="1" vertex="1">
          <mxGeometry x="-1217" y="-11218" width="35" height="20" as="geometry" />
        </mxCell>
        <mxCell id="I9boGaK-zYPbT79MtiFF-30" value="NOME_PRODUTO" style="text;html=1;align=center;verticalAlign=middle;whiteSpace=wrap;rounded=0;" parent="1" vertex="1">
          <mxGeometry x="-1179.5" y="-11172" width="60" height="30" as="geometry" />
        </mxCell>
        <mxCell id="I9boGaK-zYPbT79MtiFF-31" value="PRECO_VENDA" style="text;html=1;align=center;verticalAlign=middle;whiteSpace=wrap;rounded=0;" parent="1" vertex="1">
          <mxGeometry x="-1169" y="-11102" width="100" height="10" as="geometry" />
        </mxCell>
        <mxCell id="I9boGaK-zYPbT79MtiFF-32" value="DESCRICAO&lt;span style=&quot;white-space: pre;&quot;&gt;&#x9;&lt;/span&gt;" style="text;html=1;align=center;verticalAlign=middle;whiteSpace=wrap;rounded=0;" parent="1" vertex="1">
          <mxGeometry x="-1232" y="-11198" width="100" height="10" as="geometry" />
        </mxCell>
        <mxCell id="I9boGaK-zYPbT79MtiFF-36" style="edgeStyle=orthogonalEdgeStyle;rounded=0;orthogonalLoop=1;jettySize=auto;html=1;entryX=0.088;entryY=0.033;entryDx=0;entryDy=0;entryPerimeter=0;" parent="1" edge="1">
          <mxGeometry relative="1" as="geometry">
            <mxPoint x="-1247" y="-11205" as="sourcePoint" />
            <mxPoint x="-1247.04" y="-11000.52" as="targetPoint" />
          </mxGeometry>
        </mxCell>
        <mxCell id="I9boGaK-zYPbT79MtiFF-41" value="PRECO_COMPRA" style="text;html=1;align=center;verticalAlign=middle;whiteSpace=wrap;rounded=0;" parent="1" vertex="1">
          <mxGeometry x="-1154" y="-11132" width="60" height="30" as="geometry" />
        </mxCell>
        <mxCell id="I9boGaK-zYPbT79MtiFF-43" value="" style="ellipse;whiteSpace=wrap;html=1;aspect=fixed;" parent="1" vertex="1">
          <mxGeometry x="-1203" y="-11142" width="10" height="10" as="geometry" />
        </mxCell>
        <mxCell id="I9boGaK-zYPbT79MtiFF-45" value="TIPO_PRODUTO" style="text;html=1;align=center;verticalAlign=middle;whiteSpace=wrap;rounded=0;" parent="1" vertex="1">
          <mxGeometry x="-1173" y="-11152" width="60" height="30" as="geometry" />
        </mxCell>
        <mxCell id="I9boGaK-zYPbT79MtiFF-46" value="" style="ellipse;whiteSpace=wrap;html=1;aspect=fixed;" parent="1" vertex="1">
          <mxGeometry x="-1231" y="-11178" width="10" height="10" as="geometry" />
        </mxCell>
        <mxCell id="I9boGaK-zYPbT79MtiFF-48" value="UNI" style="text;html=1;align=center;verticalAlign=middle;whiteSpace=wrap;rounded=0;" parent="1" vertex="1">
          <mxGeometry x="-1230.5" y="-11188" width="50" height="30" as="geometry" />
        </mxCell>
        <mxCell id="I9boGaK-zYPbT79MtiFF-49" value="" style="ellipse;whiteSpace=wrap;html=1;aspect=fixed;" parent="1" vertex="1">
          <mxGeometry x="-1215.5" y="-11162" width="10" height="10" as="geometry" />
        </mxCell>
        <mxCell id="I9boGaK-zYPbT79MtiFF-53" value="" style="ellipse;whiteSpace=wrap;html=1;aspect=fixed;strokeColor=default;fillColor=#000000;" parent="1" vertex="1">
          <mxGeometry x="-562" y="-11069.5" width="10" height="10" as="geometry" />
        </mxCell>
        <mxCell id="I9boGaK-zYPbT79MtiFF-56" value="NOME_CATEGORIA" style="text;html=1;align=center;verticalAlign=middle;whiteSpace=wrap;rounded=0;" parent="1" vertex="1">
          <mxGeometry x="-492" y="-11059.5" width="60" height="30" as="geometry" />
        </mxCell>
        <mxCell id="I9boGaK-zYPbT79MtiFF-57" value="ID_CATEGORIA&lt;span style=&quot;white-space: pre;&quot;&gt;&#x9;&lt;/span&gt;" style="text;html=1;align=center;verticalAlign=middle;whiteSpace=wrap;rounded=0;" parent="1" vertex="1">
          <mxGeometry x="-527" y="-11079.5" width="60" height="30" as="geometry" />
        </mxCell>
        <mxCell id="I9boGaK-zYPbT79MtiFF-60" value="" style="ellipse;whiteSpace=wrap;html=1;aspect=fixed;fillColor=#000000;" parent="1" vertex="1">
          <mxGeometry x="-1291" y="-10608" width="10" height="10" as="geometry" />
        </mxCell>
        <mxCell id="I9boGaK-zYPbT79MtiFF-61" value="" style="ellipse;whiteSpace=wrap;html=1;aspect=fixed;fillColor=#B3B3B3;" parent="1" vertex="1">
          <mxGeometry x="-1291" y="-10588" width="10" height="10" as="geometry" />
        </mxCell>
        <mxCell id="I9boGaK-zYPbT79MtiFF-62" value="" style="ellipse;whiteSpace=wrap;html=1;aspect=fixed;" parent="1" vertex="1">
          <mxGeometry x="-1291" y="-10538" width="10" height="10" as="geometry" />
        </mxCell>
        <mxCell id="I9boGaK-zYPbT79MtiFF-68" style="edgeStyle=orthogonalEdgeStyle;rounded=0;orthogonalLoop=1;jettySize=auto;html=1;entryX=0;entryY=0.5;entryDx=0;entryDy=0;" parent="1" source="I9boGaK-zYPbT79MtiFF-63" target="I9boGaK-zYPbT79MtiFF-3" edge="1">
          <mxGeometry relative="1" as="geometry" />
        </mxCell>
        <mxCell id="I9boGaK-zYPbT79MtiFF-63" value="" style="ellipse;whiteSpace=wrap;html=1;aspect=fixed;" parent="1" vertex="1">
          <mxGeometry x="-1292" y="-10563" width="10" height="10" as="geometry" />
        </mxCell>
        <mxCell id="I9boGaK-zYPbT79MtiFF-65" style="edgeStyle=orthogonalEdgeStyle;rounded=0;orthogonalLoop=1;jettySize=auto;html=1;entryX=0.176;entryY=0;entryDx=0;entryDy=0;entryPerimeter=0;" parent="1" source="I9boGaK-zYPbT79MtiFF-60" target="I9boGaK-zYPbT79MtiFF-3" edge="1">
          <mxGeometry relative="1" as="geometry">
            <Array as="points">
              <mxPoint x="-1225" y="-10603" />
            </Array>
          </mxGeometry>
        </mxCell>
        <mxCell id="I9boGaK-zYPbT79MtiFF-69" value="QUANTIDADE_MINIMA" style="text;html=1;align=center;verticalAlign=middle;whiteSpace=wrap;rounded=0;" parent="1" vertex="1">
          <mxGeometry x="-1392" y="-10573" width="60" height="30" as="geometry" />
        </mxCell>
        <mxCell id="I9boGaK-zYPbT79MtiFF-70" value="QUANTIDADE_ATUAL" style="text;html=1;align=center;verticalAlign=middle;whiteSpace=wrap;rounded=0;" parent="1" vertex="1">
          <mxGeometry x="-1382" y="-10548" width="50" height="30" as="geometry" />
        </mxCell>
        <mxCell id="I9boGaK-zYPbT79MtiFF-71" value="ID_PRODUTO" style="text;html=1;align=center;verticalAlign=middle;whiteSpace=wrap;rounded=0;" parent="1" vertex="1">
          <mxGeometry x="-1361" y="-10598" width="50" height="30" as="geometry" />
        </mxCell>
        <mxCell id="I9boGaK-zYPbT79MtiFF-72" value="ID_ESTOQUE&lt;span style=&quot;white-space: pre;&quot;&gt;&#x9;&lt;/span&gt;" style="text;html=1;align=center;verticalAlign=middle;whiteSpace=wrap;rounded=0;" parent="1" vertex="1">
          <mxGeometry x="-1355" y="-10618" width="50" height="30" as="geometry" />
        </mxCell>
        <mxCell id="ZUPnK9qJPExyiRqyIOd3-29" value="" style="edgeStyle=orthogonalEdgeStyle;rounded=0;orthogonalLoop=1;jettySize=auto;html=1;" parent="1" source="I9boGaK-zYPbT79MtiFF-74" target="I9boGaK-zYPbT79MtiFF-4" edge="1">
          <mxGeometry relative="1" as="geometry">
            <Array as="points">
              <mxPoint x="-2077" y="-11025.5" />
              <mxPoint x="-2077" y="-11025.5" />
            </Array>
          </mxGeometry>
        </mxCell>
        <mxCell id="I9boGaK-zYPbT79MtiFF-74" value="" style="ellipse;whiteSpace=wrap;html=1;aspect=fixed;fillColor=#000000;" parent="1" vertex="1">
          <mxGeometry x="-2082" y="-11204.5" width="10" height="10" as="geometry" />
        </mxCell>
        <mxCell id="I9boGaK-zYPbT79MtiFF-75" value="" style="ellipse;whiteSpace=wrap;html=1;aspect=fixed;fillColor=#B3B3B3;" parent="1" vertex="1">
          <mxGeometry x="-2065.5" y="-11184.5" width="10" height="10" as="geometry" />
        </mxCell>
        <mxCell id="I9boGaK-zYPbT79MtiFF-76" value="QUANTIDADE" style="text;html=1;align=center;verticalAlign=middle;whiteSpace=wrap;rounded=0;" parent="1" vertex="1">
          <mxGeometry x="-2012" y="-11175.5" width="50" height="30" as="geometry" />
        </mxCell>
        <mxCell id="I9boGaK-zYPbT79MtiFF-77" value="TIPO_MOVIMENTACAO" style="text;html=1;align=center;verticalAlign=middle;whiteSpace=wrap;rounded=0;" parent="1" vertex="1">
          <mxGeometry x="-1972" y="-11154.5" width="60" height="30" as="geometry" />
        </mxCell>
        <mxCell id="I9boGaK-zYPbT79MtiFF-78" value="ID_PRODUTO" style="text;html=1;align=center;verticalAlign=middle;whiteSpace=wrap;rounded=0;" parent="1" vertex="1">
          <mxGeometry x="-2042" y="-11194.5" width="60" height="30" as="geometry" />
        </mxCell>
        <mxCell id="I9boGaK-zYPbT79MtiFF-79" value="ID_MOVIMENTACAO&lt;span style=&quot;white-space: pre;&quot;&gt;&#x9;&lt;/span&gt;" style="text;html=1;align=center;verticalAlign=middle;whiteSpace=wrap;rounded=0;" parent="1" vertex="1">
          <mxGeometry x="-2029.5" y="-11214.5" width="55" height="30" as="geometry" />
        </mxCell>
        <mxCell id="I9boGaK-zYPbT79MtiFF-82" value="" style="ellipse;whiteSpace=wrap;html=1;aspect=fixed;" parent="1" vertex="1">
          <mxGeometry x="-2007" y="-11124.5" width="10" height="10" as="geometry" />
        </mxCell>
        <mxCell id="I9boGaK-zYPbT79MtiFF-83" value="" style="ellipse;whiteSpace=wrap;html=1;aspect=fixed;" parent="1" vertex="1">
          <mxGeometry x="-2022" y="-11144.5" width="10" height="10" as="geometry" />
        </mxCell>
        <mxCell id="I9boGaK-zYPbT79MtiFF-90" value="DATA_MOVIMENTACAO" style="text;html=1;align=center;verticalAlign=middle;whiteSpace=wrap;rounded=0;" parent="1" vertex="1">
          <mxGeometry x="-1942" y="-11134.5" width="45" height="30" as="geometry" />
        </mxCell>
        <mxCell id="I9boGaK-zYPbT79MtiFF-92" value="" style="ellipse;whiteSpace=wrap;html=1;aspect=fixed;" parent="1" vertex="1">
          <mxGeometry x="-2042" y="-11164.5" width="10" height="10" as="geometry" />
        </mxCell>
        <mxCell id="I9boGaK-zYPbT79MtiFF-94" value="USUARIO" style="rounded=0;whiteSpace=wrap;html=1;" parent="1" vertex="1">
          <mxGeometry x="-1996.75" y="-10338.98" width="170" height="60" as="geometry" />
        </mxCell>
        <mxCell id="I9boGaK-zYPbT79MtiFF-95" value="" style="ellipse;whiteSpace=wrap;html=1;aspect=fixed;fillColor=#000000;" parent="1" vertex="1">
          <mxGeometry x="-2038.25" y="-10368" width="10" height="10" as="geometry" />
        </mxCell>
        <mxCell id="I9boGaK-zYPbT79MtiFF-96" value="" style="ellipse;whiteSpace=wrap;html=1;aspect=fixed;" parent="1" vertex="1">
          <mxGeometry x="-2038.75" y="-10288.98" width="10" height="10" as="geometry" />
        </mxCell>
        <mxCell id="I9boGaK-zYPbT79MtiFF-97" value="" style="ellipse;whiteSpace=wrap;html=1;aspect=fixed;" parent="1" vertex="1">
          <mxGeometry x="-2038.25" y="-10353" width="10" height="10" as="geometry" />
        </mxCell>
        <mxCell id="I9boGaK-zYPbT79MtiFF-98" value="" style="ellipse;whiteSpace=wrap;html=1;aspect=fixed;" parent="1" vertex="1">
          <mxGeometry x="-2038.25" y="-10318.98" width="10" height="10" as="geometry" />
        </mxCell>
        <mxCell id="I9boGaK-zYPbT79MtiFF-99" value="" style="ellipse;whiteSpace=wrap;html=1;aspect=fixed;" parent="1" vertex="1">
          <mxGeometry x="-2038.25" y="-10338.98" width="10" height="10" as="geometry" />
        </mxCell>
        <mxCell id="I9boGaK-zYPbT79MtiFF-100" value="" style="ellipse;whiteSpace=wrap;html=1;aspect=fixed;" parent="1" vertex="1">
          <mxGeometry x="-2038.25" y="-10303.98" width="10" height="10" as="geometry" />
        </mxCell>
        <mxCell id="I9boGaK-zYPbT79MtiFF-101" value="SENHA" style="text;html=1;align=center;verticalAlign=middle;whiteSpace=wrap;rounded=0;" parent="1" vertex="1">
          <mxGeometry x="-2090" y="-10328.98" width="60" height="30" as="geometry" />
        </mxCell>
        <mxCell id="I9boGaK-zYPbT79MtiFF-102" value="EMAIL" style="text;html=1;align=center;verticalAlign=middle;whiteSpace=wrap;rounded=0;" parent="1" vertex="1">
          <mxGeometry x="-2088.25" y="-10348" width="56.25" height="30" as="geometry" />
        </mxCell>
        <mxCell id="I9boGaK-zYPbT79MtiFF-103" value="NOME_USUARIO" style="text;html=1;align=center;verticalAlign=middle;whiteSpace=wrap;rounded=0;" parent="1" vertex="1">
          <mxGeometry x="-2112" y="-10363" width="50" height="30" as="geometry" />
        </mxCell>
        <mxCell id="I9boGaK-zYPbT79MtiFF-104" value="ID_USUARIO" style="text;html=1;align=center;verticalAlign=middle;whiteSpace=wrap;rounded=0;" parent="1" vertex="1">
          <mxGeometry x="-2108.25" y="-10378" width="60" height="30" as="geometry" />
        </mxCell>
        <mxCell id="I9boGaK-zYPbT79MtiFF-109" value="ATIVO" style="text;html=1;align=center;verticalAlign=middle;whiteSpace=wrap;rounded=0;" parent="1" vertex="1">
          <mxGeometry x="-2090" y="-10298.98" width="60" height="30" as="geometry" />
        </mxCell>
        <mxCell id="I9boGaK-zYPbT79MtiFF-110" value="CONFIRMAR_SENHA" style="text;html=1;align=center;verticalAlign=middle;whiteSpace=wrap;rounded=0;" parent="1" vertex="1">
          <mxGeometry x="-2122" y="-10313.98" width="42.5" height="30" as="geometry" />
        </mxCell>
        <mxCell id="I9boGaK-zYPbT79MtiFF-115" value="PERTENCE" style="rhombus;whiteSpace=wrap;html=1;direction=south;rotation=0;" parent="1" vertex="1">
          <mxGeometry x="-962" y="-11029.5" width="270" height="130" as="geometry" />
        </mxCell>
        <mxCell id="I9boGaK-zYPbT79MtiFF-124" value="" style="endArrow=none;html=1;rounded=0;entryX=0.5;entryY=1;entryDx=0;entryDy=0;exitX=1;exitY=0.625;exitDx=0;exitDy=0;exitPerimeter=0;" parent="1" source="I9boGaK-zYPbT79MtiFF-1" target="I9boGaK-zYPbT79MtiFF-115" edge="1">
          <mxGeometry width="50" height="50" relative="1" as="geometry">
            <mxPoint x="-932" y="-10940.5" as="sourcePoint" />
            <mxPoint x="-882" y="-10990.5" as="targetPoint" />
          </mxGeometry>
        </mxCell>
        <mxCell id="I9boGaK-zYPbT79MtiFF-125" value="" style="endArrow=none;html=1;rounded=0;entryX=0.5;entryY=0;entryDx=0;entryDy=0;exitX=0.001;exitY=0.625;exitDx=0;exitDy=0;exitPerimeter=0;" parent="1" source="I9boGaK-zYPbT79MtiFF-2" target="I9boGaK-zYPbT79MtiFF-115" edge="1">
          <mxGeometry width="50" height="50" relative="1" as="geometry">
            <mxPoint x="-682" y="-10718" as="sourcePoint" />
            <mxPoint x="-632" y="-10768" as="targetPoint" />
          </mxGeometry>
        </mxCell>
        <mxCell id="I9boGaK-zYPbT79MtiFF-128" value="&lt;b&gt;(1,n)&lt;/b&gt;" style="text;html=1;align=center;verticalAlign=middle;whiteSpace=wrap;rounded=0;" parent="1" vertex="1">
          <mxGeometry x="-647" y="-10988" width="60" height="30" as="geometry" />
        </mxCell>
        <mxCell id="I9boGaK-zYPbT79MtiFF-130" value="&lt;b&gt;(0,1)&lt;/b&gt;" style="text;html=1;align=center;verticalAlign=middle;whiteSpace=wrap;rounded=0;" parent="1" vertex="1">
          <mxGeometry x="-1047" y="-10988" width="60" height="30" as="geometry" />
        </mxCell>
        <mxCell id="I9boGaK-zYPbT79MtiFF-131" value="DISPONIVEL" style="rhombus;whiteSpace=wrap;html=1;" parent="1" vertex="1">
          <mxGeometry x="-1292" y="-10808" width="230" height="90" as="geometry" />
        </mxCell>
        <mxCell id="I9boGaK-zYPbT79MtiFF-132" value="" style="endArrow=none;html=1;rounded=0;entryX=0.5;entryY=1;entryDx=0;entryDy=0;exitX=0.5;exitY=0;exitDx=0;exitDy=0;" parent="1" source="I9boGaK-zYPbT79MtiFF-131" target="I9boGaK-zYPbT79MtiFF-1" edge="1">
          <mxGeometry width="50" height="50" relative="1" as="geometry">
            <mxPoint x="-972" y="-10698" as="sourcePoint" />
            <mxPoint x="-922" y="-10748" as="targetPoint" />
          </mxGeometry>
        </mxCell>
        <mxCell id="I9boGaK-zYPbT79MtiFF-133" value="" style="endArrow=none;html=1;rounded=0;exitX=0.5;exitY=1;exitDx=0;exitDy=0;entryX=0.462;entryY=0.017;entryDx=0;entryDy=0;entryPerimeter=0;" parent="1" source="I9boGaK-zYPbT79MtiFF-131" target="I9boGaK-zYPbT79MtiFF-3" edge="1">
          <mxGeometry width="50" height="50" relative="1" as="geometry">
            <mxPoint x="-972" y="-10598" as="sourcePoint" />
            <mxPoint x="-922" y="-10648" as="targetPoint" />
          </mxGeometry>
        </mxCell>
        <mxCell id="I9boGaK-zYPbT79MtiFF-134" value="&lt;b&gt;(0,1)&lt;/b&gt;" style="text;html=1;align=center;verticalAlign=middle;whiteSpace=wrap;rounded=0;" parent="1" vertex="1">
          <mxGeometry x="-1227" y="-10870.5" width="60" height="30" as="geometry" />
        </mxCell>
        <mxCell id="I9boGaK-zYPbT79MtiFF-135" value="&lt;b&gt;(1,1)&lt;/b&gt;" style="text;html=1;align=center;verticalAlign=middle;whiteSpace=wrap;rounded=0;" parent="1" vertex="1">
          <mxGeometry x="-1227" y="-10678" width="60" height="30" as="geometry" />
        </mxCell>
        <mxCell id="ZUPnK9qJPExyiRqyIOd3-5" style="edgeStyle=orthogonalEdgeStyle;rounded=0;orthogonalLoop=1;jettySize=auto;html=1;entryX=0.149;entryY=0.02;entryDx=0;entryDy=0;entryPerimeter=0;" parent="1" edge="1">
          <mxGeometry relative="1" as="geometry">
            <mxPoint x="-1237" y="-11190" as="sourcePoint" />
            <mxPoint x="-1236.67" y="-11001.3" as="targetPoint" />
          </mxGeometry>
        </mxCell>
        <mxCell id="ZUPnK9qJPExyiRqyIOd3-13" style="edgeStyle=orthogonalEdgeStyle;rounded=0;orthogonalLoop=1;jettySize=auto;html=1;entryX=0.304;entryY=0.008;entryDx=0;entryDy=0;entryPerimeter=0;" parent="1" edge="1">
          <mxGeometry relative="1" as="geometry">
            <mxPoint x="-1210.5" y="-11154" as="sourcePoint" />
            <mxPoint x="-1210.3200000000002" y="-11002.02" as="targetPoint" />
          </mxGeometry>
        </mxCell>
        <mxCell id="ZUPnK9qJPExyiRqyIOd3-14" style="edgeStyle=orthogonalEdgeStyle;rounded=0;orthogonalLoop=1;jettySize=auto;html=1;entryX=0.212;entryY=0.066;entryDx=0;entryDy=0;entryPerimeter=0;" parent="1" edge="1">
          <mxGeometry relative="1" as="geometry">
            <mxPoint x="-1226" y="-11172" as="sourcePoint" />
            <mxPoint x="-1225.96" y="-11000.54" as="targetPoint" />
          </mxGeometry>
        </mxCell>
        <mxCell id="ZUPnK9qJPExyiRqyIOd3-15" style="edgeStyle=orthogonalEdgeStyle;rounded=0;orthogonalLoop=1;jettySize=auto;html=1;entryX=0.371;entryY=-0.035;entryDx=0;entryDy=0;entryPerimeter=0;" parent="1" source="I9boGaK-zYPbT79MtiFF-43" target="I9boGaK-zYPbT79MtiFF-1" edge="1">
          <mxGeometry relative="1" as="geometry" />
        </mxCell>
        <mxCell id="ZUPnK9qJPExyiRqyIOd3-16" style="edgeStyle=orthogonalEdgeStyle;rounded=0;orthogonalLoop=1;jettySize=auto;html=1;entryX=0.453;entryY=0.023;entryDx=0;entryDy=0;entryPerimeter=0;" parent="1" source="I9boGaK-zYPbT79MtiFF-18" target="I9boGaK-zYPbT79MtiFF-1" edge="1">
          <mxGeometry relative="1" as="geometry" />
        </mxCell>
        <mxCell id="ZUPnK9qJPExyiRqyIOd3-20" style="edgeStyle=orthogonalEdgeStyle;rounded=0;orthogonalLoop=1;jettySize=auto;html=1;entryX=0.012;entryY=0.919;entryDx=0;entryDy=0;entryPerimeter=0;" parent="1" source="I9boGaK-zYPbT79MtiFF-62" target="I9boGaK-zYPbT79MtiFF-3" edge="1">
          <mxGeometry relative="1" as="geometry" />
        </mxCell>
        <mxCell id="ZUPnK9qJPExyiRqyIOd3-27" style="edgeStyle=orthogonalEdgeStyle;rounded=0;orthogonalLoop=1;jettySize=auto;html=1;entryX=0.015;entryY=0.083;entryDx=0;entryDy=0;entryPerimeter=0;exitX=1.085;exitY=0.517;exitDx=0;exitDy=0;exitPerimeter=0;" parent="1" source="I9boGaK-zYPbT79MtiFF-61" edge="1">
          <mxGeometry relative="1" as="geometry">
            <mxPoint x="-1272" y="-10583" as="sourcePoint" />
            <mxPoint x="-1252.9499999999998" y="-10583.06" as="targetPoint" />
          </mxGeometry>
        </mxCell>
        <mxCell id="ZUPnK9qJPExyiRqyIOd3-48" style="edgeStyle=orthogonalEdgeStyle;rounded=0;orthogonalLoop=1;jettySize=auto;html=1;entryX=-0.007;entryY=0.92;entryDx=0;entryDy=0;entryPerimeter=0;" parent="1" source="I9boGaK-zYPbT79MtiFF-109" target="I9boGaK-zYPbT79MtiFF-94" edge="1">
          <mxGeometry relative="1" as="geometry" />
        </mxCell>
        <mxCell id="ZUPnK9qJPExyiRqyIOd3-49" style="edgeStyle=orthogonalEdgeStyle;rounded=0;orthogonalLoop=1;jettySize=auto;html=1;entryX=-0.004;entryY=0.665;entryDx=0;entryDy=0;entryPerimeter=0;" parent="1" source="I9boGaK-zYPbT79MtiFF-100" target="I9boGaK-zYPbT79MtiFF-94" edge="1">
          <mxGeometry relative="1" as="geometry" />
        </mxCell>
        <mxCell id="ZUPnK9qJPExyiRqyIOd3-50" style="edgeStyle=orthogonalEdgeStyle;rounded=0;orthogonalLoop=1;jettySize=auto;html=1;entryX=0.006;entryY=0.422;entryDx=0;entryDy=0;entryPerimeter=0;" parent="1" source="I9boGaK-zYPbT79MtiFF-98" target="I9boGaK-zYPbT79MtiFF-94" edge="1">
          <mxGeometry relative="1" as="geometry" />
        </mxCell>
        <mxCell id="ZUPnK9qJPExyiRqyIOd3-52" style="edgeStyle=orthogonalEdgeStyle;rounded=0;orthogonalLoop=1;jettySize=auto;html=1;entryX=0.001;entryY=0.081;entryDx=0;entryDy=0;entryPerimeter=0;" parent="1" source="I9boGaK-zYPbT79MtiFF-99" target="I9boGaK-zYPbT79MtiFF-94" edge="1">
          <mxGeometry relative="1" as="geometry" />
        </mxCell>
        <mxCell id="ZUPnK9qJPExyiRqyIOd3-54" style="edgeStyle=orthogonalEdgeStyle;rounded=0;orthogonalLoop=1;jettySize=auto;html=1;entryX=0.051;entryY=-0.018;entryDx=0;entryDy=0;entryPerimeter=0;" parent="1" source="I9boGaK-zYPbT79MtiFF-97" target="I9boGaK-zYPbT79MtiFF-94" edge="1">
          <mxGeometry relative="1" as="geometry">
            <Array as="points">
              <mxPoint x="-2008" y="-10348.48" />
              <mxPoint x="-1988" y="-10347.48" />
            </Array>
          </mxGeometry>
        </mxCell>
        <mxCell id="ZUPnK9qJPExyiRqyIOd3-55" style="edgeStyle=orthogonalEdgeStyle;rounded=0;orthogonalLoop=1;jettySize=auto;html=1;entryX=0.185;entryY=-0.022;entryDx=0;entryDy=0;entryPerimeter=0;exitX=0.716;exitY=0.58;exitDx=0;exitDy=0;exitPerimeter=0;" parent="1" source="I9boGaK-zYPbT79MtiFF-95" edge="1">
          <mxGeometry relative="1" as="geometry">
            <mxPoint x="-2002.00008278308" y="-10363.001228070176" as="sourcePoint" />
            <mxPoint x="-1939.0500000000002" y="-10340.33" as="targetPoint" />
          </mxGeometry>
        </mxCell>
        <mxCell id="ZUPnK9qJPExyiRqyIOd3-59" style="edgeStyle=orthogonalEdgeStyle;rounded=0;orthogonalLoop=1;jettySize=auto;html=1;entryX=0.128;entryY=0.011;entryDx=0;entryDy=0;entryPerimeter=0;" parent="1" source="I9boGaK-zYPbT79MtiFF-75" target="I9boGaK-zYPbT79MtiFF-4" edge="1">
          <mxGeometry relative="1" as="geometry" />
        </mxCell>
        <mxCell id="ZUPnK9qJPExyiRqyIOd3-61" style="edgeStyle=orthogonalEdgeStyle;rounded=0;orthogonalLoop=1;jettySize=auto;html=1;entryX=0.384;entryY=-0.023;entryDx=0;entryDy=0;entryPerimeter=0;" parent="1" edge="1">
          <mxGeometry relative="1" as="geometry">
            <mxPoint x="-2017" y="-11133.5" as="sourcePoint" />
            <mxPoint x="-2016.7199999999998" y="-11010.11" as="targetPoint" />
          </mxGeometry>
        </mxCell>
        <mxCell id="ZUPnK9qJPExyiRqyIOd3-62" style="edgeStyle=orthogonalEdgeStyle;rounded=0;orthogonalLoop=1;jettySize=auto;html=1;entryX=0.265;entryY=0.071;entryDx=0;entryDy=0;entryPerimeter=0;" parent="1" edge="1">
          <mxGeometry relative="1" as="geometry">
            <mxPoint x="-2037" y="-11154.5" as="sourcePoint" />
            <mxPoint x="-2036.9499999999998" y="-11010.529999999999" as="targetPoint" />
          </mxGeometry>
        </mxCell>
        <mxCell id="ZUPnK9qJPExyiRqyIOd3-63" style="edgeStyle=orthogonalEdgeStyle;rounded=0;orthogonalLoop=1;jettySize=auto;html=1;entryX=0.47;entryY=0.029;entryDx=0;entryDy=0;entryPerimeter=0;" parent="1" source="I9boGaK-zYPbT79MtiFF-82" target="I9boGaK-zYPbT79MtiFF-4" edge="1">
          <mxGeometry relative="1" as="geometry" />
        </mxCell>
        <mxCell id="ZUPnK9qJPExyiRqyIOd3-65" value="ENTRADA / SAIDA" style="rhombus;whiteSpace=wrap;html=1;" parent="1" vertex="1">
          <mxGeometry x="-1757" y="-11015.5" width="230" height="90" as="geometry" />
        </mxCell>
        <mxCell id="ZUPnK9qJPExyiRqyIOd3-67" value="" style="endArrow=none;html=1;rounded=0;entryX=0;entryY=0.5;entryDx=0;entryDy=0;exitX=1;exitY=0.5;exitDx=0;exitDy=0;" parent="1" source="ZUPnK9qJPExyiRqyIOd3-65" target="I9boGaK-zYPbT79MtiFF-1" edge="1">
          <mxGeometry width="50" height="50" relative="1" as="geometry">
            <mxPoint x="-1592" y="-10858" as="sourcePoint" />
            <mxPoint x="-1542" y="-10908" as="targetPoint" />
          </mxGeometry>
        </mxCell>
        <mxCell id="ZUPnK9qJPExyiRqyIOd3-68" value="" style="endArrow=none;html=1;rounded=0;exitX=0.992;exitY=0.603;exitDx=0;exitDy=0;entryX=0;entryY=0.5;entryDx=0;entryDy=0;exitPerimeter=0;" parent="1" source="I9boGaK-zYPbT79MtiFF-4" target="ZUPnK9qJPExyiRqyIOd3-65" edge="1">
          <mxGeometry width="50" height="50" relative="1" as="geometry">
            <mxPoint x="-1592" y="-10858" as="sourcePoint" />
            <mxPoint x="-1542" y="-10908" as="targetPoint" />
          </mxGeometry>
        </mxCell>
        <mxCell id="ZUPnK9qJPExyiRqyIOd3-69" value="&lt;b&gt;(n,1)&lt;/b&gt;" style="text;html=1;align=center;verticalAlign=middle;whiteSpace=wrap;rounded=0;" parent="1" vertex="1">
          <mxGeometry x="-1421" y="-11000.5" width="60" height="30" as="geometry" />
        </mxCell>
        <mxCell id="ZUPnK9qJPExyiRqyIOd3-70" value="&lt;b&gt;(0.n)&lt;/b&gt;" style="text;html=1;align=center;verticalAlign=middle;whiteSpace=wrap;rounded=0;" parent="1" vertex="1">
          <mxGeometry x="-1862" y="-11000.5" width="60" height="30" as="geometry" />
        </mxCell>
        <mxCell id="I9boGaK-zYPbT79MtiFF-55" value="" style="ellipse;whiteSpace=wrap;html=1;aspect=fixed;" parent="1" vertex="1">
          <mxGeometry x="-537" y="-11049.5" width="10" height="10" as="geometry" />
        </mxCell>
        <mxCell id="ZUPnK9qJPExyiRqyIOd3-73" style="edgeStyle=orthogonalEdgeStyle;rounded=0;orthogonalLoop=1;jettySize=auto;html=1;entryX=0.318;entryY=-0.008;entryDx=0;entryDy=0;entryPerimeter=0;" parent="1" source="I9boGaK-zYPbT79MtiFF-55" target="I9boGaK-zYPbT79MtiFF-2" edge="1">
          <mxGeometry relative="1" as="geometry" />
        </mxCell>
        <mxCell id="ZUPnK9qJPExyiRqyIOd3-74" style="edgeStyle=orthogonalEdgeStyle;rounded=0;orthogonalLoop=1;jettySize=auto;html=1;entryX=0.176;entryY=-0.048;entryDx=0;entryDy=0;entryPerimeter=0;" parent="1" source="I9boGaK-zYPbT79MtiFF-53" target="I9boGaK-zYPbT79MtiFF-2" edge="1">
          <mxGeometry relative="1" as="geometry" />
        </mxCell>
        <mxCell id="WswqnjwlpcJMUtHkYAOv-1" value="Role" style="rounded=0;whiteSpace=wrap;html=1;" parent="1" vertex="1">
          <mxGeometry x="-684.25" y="-10321" width="170" height="60" as="geometry" />
        </mxCell>
        <mxCell id="HupGiCD-k4M-VpM3FqWc-13" style="edgeStyle=orthogonalEdgeStyle;rounded=0;orthogonalLoop=1;jettySize=auto;html=1;entryX=0.5;entryY=0;entryDx=0;entryDy=0;" parent="1" source="WswqnjwlpcJMUtHkYAOv-2" target="WswqnjwlpcJMUtHkYAOv-1" edge="1">
          <mxGeometry relative="1" as="geometry" />
        </mxCell>
        <mxCell id="WswqnjwlpcJMUtHkYAOv-2" value="" style="ellipse;whiteSpace=wrap;html=1;aspect=fixed;fillColor=#000000;" parent="1" vertex="1">
          <mxGeometry x="-604.25" y="-10381" width="10" height="10" as="geometry" />
        </mxCell>
        <mxCell id="HupGiCD-k4M-VpM3FqWc-12" style="edgeStyle=orthogonalEdgeStyle;rounded=0;orthogonalLoop=1;jettySize=auto;html=1;" parent="1" edge="1">
          <mxGeometry relative="1" as="geometry">
            <mxPoint x="-620.25" y="-10323" as="targetPoint" />
            <mxPoint x="-620.25" y="-10348.98" as="sourcePoint" />
          </mxGeometry>
        </mxCell>
        <mxCell id="WswqnjwlpcJMUtHkYAOv-4" value="" style="ellipse;whiteSpace=wrap;html=1;aspect=fixed;" parent="1" vertex="1">
          <mxGeometry x="-624.25" y="-10358.98" width="10" height="10" as="geometry" />
        </mxCell>
        <mxCell id="WswqnjwlpcJMUtHkYAOv-10" value="NOME_ROLE" style="text;html=1;align=center;verticalAlign=middle;whiteSpace=wrap;rounded=0;" parent="1" vertex="1">
          <mxGeometry x="-693" y="-10368" width="50" height="30" as="geometry" />
        </mxCell>
        <mxCell id="WswqnjwlpcJMUtHkYAOv-11" value="ID_ROLE" style="text;html=1;align=center;verticalAlign=middle;whiteSpace=wrap;rounded=0;" parent="1" vertex="1">
          <mxGeometry x="-674.25" y="-10391" width="60" height="30" as="geometry" />
        </mxCell>
        <mxCell id="WswqnjwlpcJMUtHkYAOv-19" value="USUARIO_ROLE" style="rounded=0;whiteSpace=wrap;html=1;" parent="1" vertex="1">
          <mxGeometry x="-1367.25" y="-10321" width="170" height="60" as="geometry" />
        </mxCell>
        <mxCell id="HupGiCD-k4M-VpM3FqWc-1" style="edgeStyle=orthogonalEdgeStyle;rounded=0;orthogonalLoop=1;jettySize=auto;html=1;entryX=1;entryY=0;entryDx=0;entryDy=0;" parent="1" source="WswqnjwlpcJMUtHkYAOv-20" target="WswqnjwlpcJMUtHkYAOv-19" edge="1">
          <mxGeometry relative="1" as="geometry" />
        </mxCell>
        <mxCell id="WswqnjwlpcJMUtHkYAOv-20" value="" style="ellipse;whiteSpace=wrap;html=1;aspect=fixed;fillColor=#000000;" parent="1" vertex="1">
          <mxGeometry x="-1203" y="-10425" width="10" height="10" as="geometry" />
        </mxCell>
        <mxCell id="HupGiCD-k4M-VpM3FqWc-2" style="edgeStyle=orthogonalEdgeStyle;rounded=0;orthogonalLoop=1;jettySize=auto;html=1;entryX=0.872;entryY=0.052;entryDx=0;entryDy=0;entryPerimeter=0;" parent="1" source="WswqnjwlpcJMUtHkYAOv-21" target="WswqnjwlpcJMUtHkYAOv-19" edge="1">
          <mxGeometry relative="1" as="geometry">
            <mxPoint x="-1218.75" y="-10325" as="targetPoint" />
          </mxGeometry>
        </mxCell>
        <mxCell id="WswqnjwlpcJMUtHkYAOv-21" value="" style="ellipse;whiteSpace=wrap;html=1;aspect=fixed;" parent="1" vertex="1">
          <mxGeometry x="-1223.75" y="-10395" width="10" height="10" as="geometry" />
        </mxCell>
        <mxCell id="WswqnjwlpcJMUtHkYAOv-22" value="ID_USUSARIO" style="text;html=1;align=center;verticalAlign=middle;whiteSpace=wrap;rounded=0;fillColor=default;" parent="1" vertex="1">
          <mxGeometry x="-1330.25" y="-10405" width="93" height="30" as="geometry" />
        </mxCell>
        <mxCell id="WswqnjwlpcJMUtHkYAOv-23" value="ID_USUARIO_ROLE" style="text;html=1;align=center;verticalAlign=middle;whiteSpace=wrap;rounded=0;" parent="1" vertex="1">
          <mxGeometry x="-1292.75" y="-10435" width="60" height="30" as="geometry" />
        </mxCell>
        <mxCell id="WswqnjwlpcJMUtHkYAOv-26" value="ID_ROLE" style="text;html=1;align=center;verticalAlign=middle;whiteSpace=wrap;rounded=0;" parent="1" vertex="1">
          <mxGeometry x="-1342.75" y="-10383" width="112" height="30" as="geometry" />
        </mxCell>
        <mxCell id="WswqnjwlpcJMUtHkYAOv-30" value="" style="ellipse;whiteSpace=wrap;html=1;aspect=fixed;" parent="1" vertex="1">
          <mxGeometry x="-1247.75" y="-10373" width="10" height="10" as="geometry" />
        </mxCell>
        <mxCell id="WswqnjwlpcJMUtHkYAOv-32" value="PODE TER" style="rhombus;whiteSpace=wrap;html=1;gradientColor=none;" parent="1" vertex="1">
          <mxGeometry x="-1751" y="-10348.98" width="307" height="80" as="geometry" />
        </mxCell>
        <mxCell id="WswqnjwlpcJMUtHkYAOv-33" value="" style="endArrow=none;html=1;rounded=0;exitX=1;exitY=0.5;exitDx=0;exitDy=0;entryX=0;entryY=0.5;entryDx=0;entryDy=0;" parent="1" source="I9boGaK-zYPbT79MtiFF-94" target="WswqnjwlpcJMUtHkYAOv-32" edge="1">
          <mxGeometry width="50" height="50" relative="1" as="geometry">
            <mxPoint x="-1769" y="-10263.98" as="sourcePoint" />
            <mxPoint x="-1719" y="-10313.98" as="targetPoint" />
          </mxGeometry>
        </mxCell>
        <mxCell id="WswqnjwlpcJMUtHkYAOv-34" value="" style="endArrow=none;html=1;rounded=0;exitX=1;exitY=0.5;exitDx=0;exitDy=0;entryX=0;entryY=0.25;entryDx=0;entryDy=0;" parent="1" source="WswqnjwlpcJMUtHkYAOv-32" target="WswqnjwlpcJMUtHkYAOv-19" edge="1">
          <mxGeometry width="50" height="50" relative="1" as="geometry">
            <mxPoint x="-1416" y="-10313.02" as="sourcePoint" />
            <mxPoint x="-1308" y="-10318" as="targetPoint" />
          </mxGeometry>
        </mxCell>
        <mxCell id="WswqnjwlpcJMUtHkYAOv-35" value="0,N" style="text;html=1;align=center;verticalAlign=middle;whiteSpace=wrap;rounded=0;" parent="1" vertex="1">
          <mxGeometry x="-1811" y="-10343" width="60" height="30" as="geometry" />
        </mxCell>
        <mxCell id="WswqnjwlpcJMUtHkYAOv-36" value="(1,1)" style="text;html=1;align=center;verticalAlign=middle;whiteSpace=wrap;rounded=0;" parent="1" vertex="1">
          <mxGeometry x="-1430" y="-10343" width="60" height="30" as="geometry" />
        </mxCell>
        <mxCell id="WswqnjwlpcJMUtHkYAOv-37" value="PODE TER" style="rhombus;whiteSpace=wrap;html=1;" parent="1" vertex="1">
          <mxGeometry x="-1092" y="-10333" width="307" height="85" as="geometry" />
        </mxCell>
        <mxCell id="WswqnjwlpcJMUtHkYAOv-40" value="(0,N)" style="text;html=1;align=center;verticalAlign=middle;whiteSpace=wrap;rounded=0;" parent="1" vertex="1">
          <mxGeometry x="-1167" y="-10321" width="60" height="30" as="geometry" />
        </mxCell>
        <mxCell id="WswqnjwlpcJMUtHkYAOv-41" value="(1,1)" style="text;html=1;align=center;verticalAlign=middle;whiteSpace=wrap;rounded=0;" parent="1" vertex="1">
          <mxGeometry x="-770" y="-10321" width="60" height="30" as="geometry" />
        </mxCell>
        <mxCell id="HupGiCD-k4M-VpM3FqWc-5" style="edgeStyle=orthogonalEdgeStyle;rounded=0;orthogonalLoop=1;jettySize=auto;html=1;entryX=0.732;entryY=0.011;entryDx=0;entryDy=0;entryPerimeter=0;" parent="1" source="WswqnjwlpcJMUtHkYAOv-30" target="WswqnjwlpcJMUtHkYAOv-19" edge="1">
          <mxGeometry relative="1" as="geometry" />
        </mxCell>
        <mxCell id="HupGiCD-k4M-VpM3FqWc-8" value="" style="endArrow=none;html=1;rounded=0;exitX=1;exitY=0.5;exitDx=0;exitDy=0;entryX=0;entryY=0.5;entryDx=0;entryDy=0;" parent="1" source="WswqnjwlpcJMUtHkYAOv-19" target="WswqnjwlpcJMUtHkYAOv-37" edge="1">
          <mxGeometry width="50" height="50" relative="1" as="geometry">
            <mxPoint x="-1130" y="-10220" as="sourcePoint" />
            <mxPoint x="-1080" y="-10270" as="targetPoint" />
          </mxGeometry>
        </mxCell>
        <mxCell id="HupGiCD-k4M-VpM3FqWc-9" value="" style="endArrow=none;html=1;rounded=0;entryX=1;entryY=0.5;entryDx=0;entryDy=0;exitX=0;exitY=0.5;exitDx=0;exitDy=0;" parent="1" source="WswqnjwlpcJMUtHkYAOv-1" target="WswqnjwlpcJMUtHkYAOv-37" edge="1">
          <mxGeometry width="50" height="50" relative="1" as="geometry">
            <mxPoint x="-990" y="-10190" as="sourcePoint" />
            <mxPoint x="-940" y="-10240" as="targetPoint" />
          </mxGeometry>
        </mxCell>
      </root>
    </mxGraphModel>
  </diagram>
</mxfile>
